<svg xmlns="http://www.w3.org/2000/svg" viewBox="0 0 1024 1024"><path transform="translate(0,896) scale(1,-1)" d="M941.76 520.1600000000001A58.56 58.56 0 0 1 895.04 560l-227.2 32-101.76 208a58.88 58.88 0 0 1-51.84 32 57.76 57.76 0 0 1-52.32-32l-101.44-208L132.8 560a59.36 59.36 0 0 1-46.08-39.2 56.96 56.96 0 0 1 14.88-59.68l164.32-160-39.2-227.84A59.84 59.84 0 0 1 250.56 16a58.72 58.72 0 0 1 60.96-4.16l203.36 107.04 202.88-106.88a56 56 0 0 1 27.36-7.04 51.68 51.68 0 0 1 34.4 12.16 58.08 58.08 0 0 1 22.08 56.48l-39.04 226.56 163.84 160a57.44 57.44 0 0 1 15.36 60zM325.6 316.48v3.2L140.16 501.12a1.28 1.28 0 0 0 0 1.44 3.36 3.36 0 0 0 1.6 1.6l256 37.12L512 774.24s3.04 0.8 3.84 0l114.4-232.64 256-36.96a2.08 2.08 0 0 0 1.92-1.76s0-1.12-0.8-1.76L702.4 320l44-256a2.4 2.4 0 0 0 0-2.4h-0.96L514.88 182.39999999999998l-229.6-120.8a2.88 2.88 0 0 0-2.24 0 2.88 2.88 0 0 0-0.96 2.24z"/></svg>