<svg xmlns="http://www.w3.org/2000/svg" viewBox="0 0 24 24">
	<path d="M3 8L3 5Q3 4.1715717 3.5857875 3.5857859Q4.1715717 3 5 3L8 3Q8.0984917 3 8.1950903 3.0192146Q8.2916889 3.0384293 8.3826828 3.0761201Q8.4736767 3.113811 8.5555706 3.16853Q8.6374626 3.223249 8.7071066 3.2928929Q8.7767506 3.3625369 8.8314686 3.4444294Q8.8861876 3.5263219 8.9238787 3.6173162Q8.9615698 3.7083106 8.9807854 3.8049095Q9 3.9015083 9 4Q9 4.0984907 8.9807854 4.1950898Q8.9615698 4.2916884 8.9238787 4.3826828Q8.8861876 4.4736767 8.8314686 4.5555696Q8.7767506 4.6374626 8.7071066 4.7071066Q8.6374626 4.7767506 8.5555696 4.8314695Q8.4736767 4.8861885 8.3826828 4.9238791Q8.2916889 4.9615703 8.1950893 4.9807854Q8.0984917 5 8 5L5 5Q5 5 4.999999 5.000001Q5 5 5 5L5 8Q5 8.0984917 4.9807854 8.1950903Q4.9615703 8.2916889 4.9238791 8.3826828Q4.8861885 8.4736767 4.8314695 8.5555706Q4.7767506 8.6374626 4.7071066 8.7071066Q4.6374626 8.7767506 4.5555696 8.8314686Q4.4736767 8.8861876 4.3826828 8.9238787Q4.2916884 8.9615698 4.1950893 8.9807854Q4.0984907 9 4 9Q3.9015083 9 3.8049097 8.9807854Q3.7083106 8.9615698 3.6173162 8.9238787Q3.5263219 8.8861876 3.4444294 8.8314686Q3.3625369 8.7767506 3.2928929 8.7071066Q3.223249 8.6374626 3.16853 8.5555696Q3.113811 8.4736767 3.0761201 8.3826828Q3.0384293 8.2916889 3.0192144 8.1950893Q3 8.0984917 3 8ZM5 16L5 19L5.0000019 19.000002L5 19L8 19Q8.0984917 19 8.1950903 19.019215Q8.2916889 19.038429 8.3826828 19.076118Q8.4736767 19.113811 8.5555706 19.16853Q8.6374626 19.223248 8.7071066 19.292892Q8.7767506 19.362535 8.8314686 19.444427Q8.8861876 19.52632 8.9238787 19.617313Q8.9615698 19.708309 8.9807854 19.804909Q9 19.901508 9 20Q9 20.098492 8.9807854 20.195089Q8.9615698 20.291687 8.9238787 20.382681Q8.8861876 20.473675 8.8314686 20.555569Q8.7767506 20.637463 8.7071066 20.707106Q8.6374626 20.776749 8.5555696 20.831467Q8.4736767 20.886187 8.3826828 20.923878Q8.2916889 20.961571 8.1950893 20.980785Q8.0984917 21 8 21L5 21Q4.1715741 21 3.5857849 20.414213Q3 19.828424 3 19L3 16Q3 15.901508 3.0192144 15.804908Q3.0384293 15.708309 3.0761201 15.617315Q3.113811 15.526321 3.16853 15.444428Q3.223249 15.362535 3.2928929 15.292892Q3.3625369 15.223248 3.4444294 15.16853Q3.5263219 15.113811 3.6173162 15.076119Q3.7083106 15.038429 3.8049095 15.019215Q3.9015083 15 4 15Q4.0984907 15 4.1950898 15.019215Q4.2916884 15.038429 4.3826828 15.076119Q4.4736767 15.113811 4.5555696 15.16853Q4.6374626 15.223248 4.7071066 15.292892Q4.7767506 15.362535 4.8314695 15.444428Q4.8861885 15.526321 4.9238791 15.617315Q4.9615703 15.708309 4.9807854 15.804909Q5 15.901508 5 16ZM19 8L19 5Q19 4.999999 19 4.999999L19 5L16 5Q15.901508 5 15.804908 4.9807854Q15.708309 4.9615703 15.617315 4.9238791Q15.526321 4.8861885 15.444428 4.8314695Q15.362535 4.7767506 15.292892 4.7071066Q15.223248 4.6374626 15.168529 4.5555696Q15.11381 4.4736767 15.076118 4.3826828Q15.038427 4.2916884 15.019214 4.1950893Q14.999999 4.0984907 15 4Q14.999999 3.9015083 15.019214 3.8049097Q15.038427 3.7083106 15.076118 3.6173162Q15.11381 3.5263219 15.168529 3.4444294Q15.223248 3.3625369 15.292892 3.2928929Q15.362535 3.223249 15.444428 3.16853Q15.526321 3.113811 15.617315 3.0761201Q15.708309 3.0384293 15.804909 3.0192146Q15.901508 3 16 3L19 3Q19.828424 3 20.414215 3.5857875Q21 4.1715741 21 5L21 8Q21 8.0984917 20.980785 8.1950903Q20.961571 8.2916889 20.923878 8.3826828Q20.886187 8.4736767 20.831469 8.5555706Q20.776749 8.6374626 20.707106 8.7071066Q20.637463 8.7767506 20.555569 8.8314686Q20.473675 8.8861876 20.382681 8.9238787Q20.291687 8.9615698 20.195087 8.9807854Q20.098492 9 20 9Q19.901508 9 19.804909 8.9807854Q19.708309 8.9615698 19.617313 8.9238787Q19.52632 8.8861876 19.444427 8.8314686Q19.362535 8.7767506 19.292892 8.7071066Q19.223248 8.6374626 19.16853 8.5555696Q19.113811 8.4736767 19.076118 8.3826828Q19.038429 8.2916889 19.019215 8.1950893Q19 8.0984917 19 8ZM21 16L21 19Q21 19.828424 20.414219 20.414211Q19.828424 21 19 21L16 21Q15.901508 21 15.804908 20.980785Q15.708309 20.961571 15.617315 20.923878Q15.526321 20.886187 15.444428 20.831469Q15.362535 20.776749 15.292892 20.707106Q15.223248 20.637463 15.168529 20.555569Q15.11381 20.473675 15.076118 20.382681Q15.038427 20.291687 15.019214 20.195087Q14.999999 20.098492 15 20Q14.999999 19.901508 15.019214 19.804909Q15.038427 19.708309 15.076118 19.617313Q15.11381 19.52632 15.168529 19.444427Q15.223248 19.362535 15.292892 19.292892Q15.362535 19.223248 15.444428 19.16853Q15.526321 19.113811 15.617315 19.076118Q15.708309 19.038429 15.804909 19.019215Q15.901508 19 16 19L19 19L18.999996 19.000004L19 19L19 16Q19 15.901508 19.019215 15.804908Q19.038429 15.708309 19.076118 15.617315Q19.113811 15.526321 19.16853 15.444428Q19.223248 15.362535 19.292892 15.292892Q19.362535 15.223248 19.444427 15.16853Q19.52632 15.113811 19.617313 15.076119Q19.708309 15.038429 19.804909 15.019215Q19.901508 15 20 15Q20.098492 15 20.195089 15.019215Q20.291687 15.038429 20.382681 15.076119Q20.473675 15.113811 20.555569 15.16853Q20.637463 15.223248 20.707106 15.292892Q20.776749 15.362535 20.831467 15.444428Q20.886187 15.526321 20.923878 15.617315Q20.961571 15.708309 20.980785 15.804909Q21 15.901508 21 16Z" fill="currentColor" />
</svg>
