<svg xmlns="http://www.w3.org/2000/svg" viewBox="0 0 24 24">
	<path d="M9.4685001 10.749013Q9.374382 10.382956 9.0616722 10.170665Q8.7489614 9.9583731 8.374011 10.005992Q7.9990611 10.053611 7.7493448 10.33733Q7.4996262 10.62105 7.4999995 10.999012L7.5 13Q7.4996262 13.37895 7.7493434 13.66267Q7.9990597 13.946389 8.374011 13.994008Q8.7489614 14.041627 9.0616713 13.829336Q9.374382 13.617044 9.4685001 13.250987Q9.4930248 13.155598 9.5356884 13.066827Q9.578352 12.978056 9.6375151 12.899313Q9.6966763 12.82057 9.7700644 12.754883Q9.8434525 12.689196 9.9282455 12.639088Q10.013039 12.58898 10.105977 12.556376Q10.198915 12.523773 10.296429 12.509928Q10.393942 12.496083 10.492283 12.501528Q10.590624 12.506973 10.686013 12.5315Q10.781402 12.556025 10.870173 12.598688Q10.958944 12.641352 11.037687 12.700514Q11.11643 12.759676 11.182117 12.833064Q11.247805 12.906452 11.297912 12.991245Q11.34802 13.076037 11.380622 13.168976Q11.413225 13.261914 11.42707 13.359427Q11.440914 13.456942 11.43547 13.555283Q11.430025 13.653624 11.4055 13.749013Q11.123148 14.847184 10.185018 15.484055Q9.2468853 16.12093 8.1220331 15.978072Q6.9971819 15.835215 6.2480311 14.984056Q5.4988804 14.132898 5.5 13L5.5000005 11.000988Q5.4988804 9.8671017 6.2480316 9.0159435Q6.9971814 8.1647854 8.1220331 8.0219278Q9.2468853 7.8790708 10.185017 8.5159445Q11.123148 9.1528158 11.4055 10.250987Q11.430025 10.346375 11.43547 10.444716Q11.440914 10.543056 11.42707 10.64057Q11.413225 10.738083 11.380623 10.831022Q11.34802 10.923962 11.297912 11.008754Q11.247805 11.093546 11.182117 11.166933Q11.11643 11.24032 11.037687 11.299483Q10.958944 11.358646 10.870173 11.40131Q10.781402 11.443974 10.686013 11.4685Q10.590624 11.493025 10.492283 11.498469Q10.393942 11.503914 10.296429 11.490069Q10.198915 11.476223 10.105977 11.443621Q10.013039 11.411017 9.9282455 11.36091Q9.8434525 11.310802 9.7700644 11.245114Q9.6966763 11.179427 9.6375151 11.100685Q9.578352 11.021942 9.5356884 10.933171Q9.4930248 10.8444 9.4685001 10.749013ZM16.4685 10.749013Q16.374382 10.382956 16.061672 10.170665Q15.74896 9.9583731 15.374009 10.005992Q14.99906 10.053611 14.749343 10.33733Q14.499626 10.621049 14.5 10.999011L14.5 13Q14.499626 13.378951 14.749343 13.66267Q14.99906 13.946389 15.374011 13.994008Q15.74896 14.041627 16.06167 13.829336Q16.374382 13.617044 16.4685 13.250987Q16.493027 13.155598 16.535688 13.066827Q16.578352 12.978056 16.637514 12.899313Q16.696674 12.82057 16.770061 12.754883Q16.843451 12.689196 16.928244 12.639088Q17.013035 12.58898 17.105972 12.556376Q17.198912 12.523773 17.296427 12.509928Q17.39394 12.496083 17.492281 12.501528Q17.590622 12.506973 17.686012 12.5315Q17.781401 12.556025 17.870173 12.598688Q17.958942 12.641352 18.037685 12.700514Q18.116428 12.759676 18.182116 12.833064Q18.247803 12.906452 18.297911 12.991245Q18.348019 13.076037 18.380623 13.168976Q18.413225 13.261914 18.427071 13.359427Q18.440916 13.456942 18.435471 13.555283Q18.430027 13.653624 18.4055 13.749013Q18.123148 14.847184 17.185019 15.484055Q16.246885 16.12093 15.122033 15.978072Q13.997182 15.835215 13.248031 14.984056Q12.498878 14.132896 12.5 13L12.5 11.000989Q12.498878 9.8671036 13.248031 9.0159435Q13.997182 8.1647854 15.122031 8.0219278Q16.246885 7.8790708 17.185017 8.5159445Q18.123148 9.1528158 18.4055 10.250987Q18.430027 10.346375 18.435471 10.444716Q18.440916 10.543056 18.427071 10.64057Q18.413225 10.738083 18.380623 10.831022Q18.348019 10.923962 18.297911 11.008754Q18.247803 11.093546 18.182116 11.166933Q18.116428 11.24032 18.037685 11.299483Q17.958942 11.358646 17.870171 11.40131Q17.781401 11.443974 17.686012 11.4685Q17.590622 11.493025 17.492281 11.498469Q17.39394 11.503914 17.296425 11.490069Q17.19891 11.476223 17.105972 11.443621Q17.013035 11.411017 16.928244 11.36091Q16.843451 11.310802 16.770063 11.245114Q16.696674 11.179427 16.637514 11.100685Q16.578352 11.021942 16.53569 10.933171Q16.493027 10.8444 16.4685 10.749013ZM4 18L20 18L20.000004 17.999996L20 18L20 6Q20 5.999999 20 5.999999L20 6L4 6Q3.9999998 6 3.9999998 6Q4 6 4 6L4 18Q4 18.000002 4.0000024 18.000004L4 18ZM4 20Q3.1715751 20 2.5857842 19.414211Q2 18.828423 2 18L2 6Q2 5.1715727 2.5857861 4.5857868Q3.1715729 4 4 4L20 4Q20.828424 4 21.414215 4.5857878Q22 5.1715741 22 6L22 18Q22 18.828424 21.414211 19.414219Q20.828424 20 20 20L4 20Z" fill="currentColor" />
</svg>
